<?xml version="1.0" standalone="no"?>
<!DOCTYPE svg PUBLIC "-//W3C//DTD SVG 20010904//EN"
 "http://www.w3.org/TR/2001/REC-SVG-20010904/DTD/svg10.dtd">
<svg version="1.0" xmlns="http://www.w3.org/2000/svg"
 width="705.000000pt" height="705.000000pt" viewBox="0 0 705.000000 705.000000"
 preserveAspectRatio="xMidYMid meet">
<metadata>
Created by potrace 1.11, written by Peter Selinger 2001-2013
</metadata>
<g transform="translate(0.000000,705.000000) scale(0.100000,-0.100000)"
fill="#000000" stroke="none">
<path d="M595 7039 c4 -6 10 -8 13 -5 3 3 11 1 19 -6 18 -15 66 -17 75 -4 15
22 7 26 -53 26 -40 0 -58 -4 -54 -11z"/>
<path d="M158 6312 l-158 -3 0 -65 c0 -62 1 -65 21 -59 16 5 31 -3 64 -35 l42
-41 116 6 c103 5 120 4 155 -14 21 -11 45 -27 53 -37 8 -10 31 -30 52 -45 31
-23 43 -26 67 -19 35 10 45 0 42 -47 -2 -28 1 -33 19 -33 15 0 19 -4 15 -16
-5 -14 -4 -15 9 -4 12 10 15 10 16 -1 0 -8 5 0 10 16 11 34 16 182 6 191 -11
12 -58 -6 -50 -19 13 -22 10 -45 -5 -39 -9 3 -13 1 -9 -4 3 -6 2 -16 -4 -24
-6 -11 -9 -12 -9 -2 0 7 -5 10 -11 6 -9 -5 -10 1 -5 20 4 18 2 26 -6 26 -10 0
-10 2 0 9 10 6 3 16 -29 37 -55 38 -79 72 -86 122 -11 79 -13 80 -315 74z"/>
<path d="M3490 6291 c0 -18 -4 -21 -32 -16 -18 3 -42 8 -52 11 -15 5 -18 2
-14 -14 4 -15 2 -19 -8 -15 -23 8 -64 -6 -58 -20 2 -7 -6 -23 -20 -36 -21 -20
-24 -21 -23 -4 1 12 -6 19 -20 21 -16 2 -23 -2 -23 -13 0 -9 -4 -14 -9 -11 -5
3 -12 -1 -15 -9 -3 -8 -9 -14 -13 -13 -15 4 -58 -15 -76 -33 -22 -23 -37 -24
-37 -3 0 13 -3 14 -15 4 -8 -7 -24 -10 -35 -7 -11 3 -20 1 -20 -4 0 -5 7 -9
16 -9 18 0 14 -22 -6 -28 -7 -3 -10 0 -7 5 7 11 -28 31 -58 34 -11 1 -59 1
-107 0 -109 -1 -122 -11 -115 -88 3 -32 1 -53 -5 -53 -6 0 -8 -14 -3 -36 6
-33 5 -35 -14 -29 -15 5 -19 3 -16 -8 9 -23 -13 -70 -30 -63 -10 4 -15 -1 -15
-15 0 -11 -4 -18 -9 -14 -5 3 -13 0 -17 -6 -3 -6 -1 -15 6 -19 9 -6 7 -11 -9
-19 -12 -7 -26 -9 -31 -6 -5 3 -12 -6 -16 -20 -5 -20 -10 -24 -30 -19 -17 4
-30 0 -42 -12 -9 -11 -28 -28 -40 -39 -20 -16 -25 -17 -32 -5 -8 13 -10 12
-10 -2 0 -19 -37 -44 -57 -40 -7 2 -13 -2 -13 -8 0 -5 5 -10 12 -10 6 0 9 -3
6 -6 -4 -3 -16 -1 -27 5 -19 11 -20 9 -15 -18 4 -16 1 -31 -5 -35 -6 -4 -8
-12 -5 -18 5 -7 1 -9 -9 -5 -10 4 -17 1 -17 -6 0 -7 -4 -18 -9 -26 -8 -13 -12
-13 -27 0 -16 12 -17 12 -11 -3 3 -10 2 -18 -2 -18 -16 0 -22 -32 -9 -48 12
-14 10 -14 -12 -2 -22 12 -24 12 -12 -2 16 -20 5 -78 -20 -99 -10 -9 -18 -22
-18 -28 0 -7 -4 -9 -10 -6 -5 3 -10 -1 -10 -9 0 -10 6 -13 15 -10 24 10 18
-22 -7 -34 -21 -10 -21 -11 -4 -11 19 -1 19 -1 1 -14 -12 -10 -16 -22 -13 -40
3 -17 1 -24 -5 -20 -7 4 -8 -1 -3 -12 4 -11 0 -25 -10 -36 -10 -11 -15 -28
-12 -43 3 -16 1 -23 -5 -19 -6 4 -8 0 -5 -9 4 -8 2 -35 -3 -60 -8 -34 -16 -48
-32 -53 -17 -5 -18 -8 -7 -12 22 -9 30 -26 18 -40 -8 -10 -6 -13 6 -13 19 0
22 -50 4 -68 -7 -7 -13 -46 -14 -94 -1 -46 -5 -90 -8 -99 -4 -10 -3 -20 3 -24
6 -3 11 -31 11 -61 0 -48 2 -54 21 -54 16 0 19 -4 14 -21 -12 -37 -14 -149 -3
-149 6 0 7 -10 3 -27 -4 -16 -7 -37 -7 -48 1 -10 -4 -25 -10 -32 -8 -10 -7
-12 4 -8 12 5 14 -5 13 -50 -2 -40 1 -55 10 -51 13 5 13 -64 -1 -85 -4 -8 -3
-9 4 -5 8 5 10 -2 5 -25 -3 -18 -1 -34 5 -38 15 -9 32 -156 22 -192 -6 -19 -5
-29 2 -29 6 0 8 -9 5 -21 -3 -11 1 -36 9 -55 8 -20 12 -44 9 -55 -5 -14 -2
-17 8 -13 12 4 13 -2 6 -42 -6 -30 -5 -51 1 -59 6 -7 7 -21 4 -31 -6 -18 -5
-18 14 1 19 20 19 22 4 125 -9 62 -12 121 -8 143 l7 39 20 -23 c20 -23 24 -41
12 -53 -9 -9 -11 -46 -3 -46 4 0 21 18 39 40 27 33 38 40 68 40 l37 0 -34 -25
c-19 -14 -39 -36 -43 -48 -25 -65 8 -170 65 -205 48 -30 57 -28 51 11 -6 38
-6 37 -4 60 2 25 29 32 50 13 23 -21 33 -9 22 30 -5 21 -2 38 12 62 l19 33 16
-23 c9 -13 24 -29 34 -36 10 -7 18 -21 18 -30 0 -9 7 -26 15 -36 9 -12 15 -42
15 -72 0 -29 4 -55 9 -58 22 -14 39 -236 18 -236 -5 0 -15 7 -23 15 -13 13
-19 12 -54 -6 -53 -28 -132 -22 -186 14 -43 30 -53 23 -30 -22 9 -16 16 -39
16 -50 0 -11 5 -23 11 -27 7 -4 9 -22 4 -50 -5 -33 -3 -44 7 -44 10 0 9 -3 -2
-11 -11 -8 -12 -12 -2 -16 6 -2 12 -11 12 -19 0 -8 7 -14 16 -14 14 0 14 -3 3
-16 -10 -13 -10 -17 1 -24 12 -7 12 -12 -2 -27 -22 -25 -32 -73 -15 -73 7 0
14 -11 15 -25 1 -18 -3 -25 -15 -25 -15 0 -14 -2 3 -15 10 -8 15 -15 10 -15
-5 0 -1 -9 9 -20 9 -10 15 -26 12 -34 -4 -9 1 -17 12 -21 13 -4 17 -12 14 -25
-4 -16 0 -20 21 -20 15 0 25 -4 22 -9 -3 -5 3 -11 14 -14 11 -3 20 -12 20 -20
0 -10 7 -13 19 -10 25 6 31 -5 36 -71 2 -30 7 -72 11 -93 5 -21 7 -47 6 -58
-2 -16 -1 -17 7 -5 6 8 8 43 6 77 -2 34 0 65 6 68 11 7 8 114 -3 121 -13 8 -9
52 6 66 9 9 11 21 5 40 -4 15 -4 30 1 33 5 3 6 13 3 22 -4 11 -3 14 5 9 7 -4
12 -1 12 7 0 33 68 -11 74 -47 1 -8 9 -23 17 -33 21 -27 39 -61 39 -75 0 -7
11 -26 25 -42 13 -15 32 -49 41 -75 10 -25 21 -50 26 -56 4 -5 8 -20 8 -33 0
-13 4 -21 9 -17 8 4 22 -20 26 -45 0 -3 5 -14 11 -25 6 -11 9 -39 8 -62 -1
-24 2 -43 8 -43 5 0 6 -9 3 -20 -4 -13 -1 -22 9 -26 9 -3 14 -10 11 -14 -3 -4
3 -11 12 -14 15 -6 15 -8 3 -16 -12 -8 -12 -10 -1 -10 11 0 11 -3 0 -17 -12
-14 -12 -16 0 -9 9 6 12 5 9 -5 -3 -8 -1 -22 4 -31 7 -14 5 -16 -8 -11 -14 5
-15 3 -6 -14 6 -11 8 -23 4 -27 -3 -4 2 -4 13 0 16 6 18 5 8 -7 -7 -7 -13 -22
-13 -34 0 -16 2 -17 10 -5 5 8 10 11 10 6 0 -5 7 -3 15 4 13 10 15 9 15 -10 0
-15 -5 -20 -14 -17 -10 4 -13 1 -10 -8 3 -7 14 -12 25 -10 18 4 17 2 -3 -26
-24 -32 -30 -36 -22 -14 4 8 2 15 -4 15 -6 0 -9 -8 -7 -17 1 -10 10 -17 19
-17 8 1 14 -2 11 -6 -2 -4 9 -21 25 -39 17 -17 30 -38 30 -46 0 -8 7 -15 15
-15 8 0 15 -8 15 -17 0 -10 -4 -14 -8 -8 -13 18 -30 15 -35 -5 -3 -11 -2 -18
2 -15 4 2 8 -1 8 -8 0 -7 4 -21 8 -32 5 -15 4 -16 -3 -6 -6 8 -15 10 -23 6 -9
-6 -11 -3 -6 8 7 18 -1 21 -21 9 -7 -5 -10 -15 -7 -24 5 -11 -1 -14 -25 -10
-28 4 -30 2 -30 -26 0 -17 -6 -33 -12 -35 -10 -4 -10 -6 0 -6 6 -1 12 -5 12
-11 0 -5 -7 -7 -16 -3 -13 5 -15 2 -9 -15 4 -14 2 -22 -5 -22 -6 0 -9 -4 -6
-8 3 -5 -1 -9 -9 -9 -8 0 -17 7 -19 14 -4 9 -1 11 6 7 7 -5 8 -3 4 5 -5 7 -14
10 -20 8 -17 -7 -24 -1 -76 63 -69 86 -83 93 -20 10 113 -147 315 -432 454
-640 125 -186 294 -418 325 -444 13 -12 41 -36 63 -55 21 -19 46 -50 54 -69
16 -38 19 -109 5 -114 -5 -1 -11 -12 -13 -23 -1 -11 -5 -22 -8 -25 -3 -3 -14
-24 -24 -47 -11 -24 -23 -43 -28 -43 -5 0 -6 -4 -3 -10 3 -5 1 -10 -5 -10 -6
0 -8 -5 -4 -12 5 -7 2 -9 -8 -5 -11 4 -18 -1 -21 -15 -4 -12 -10 -17 -17 -13
-9 5 -10 1 -6 -13 4 -11 2 -23 -4 -27 -29 -18 -1 -25 98 -25 92 0 111 3 128
19 11 10 30 21 41 25 31 10 119 135 180 254 71 139 77 147 93 127 10 -12 10
-15 0 -15 -7 0 -10 -7 -6 -16 5 -12 2 -15 -9 -10 -9 3 -13 2 -10 -3 8 -13 -17
-101 -27 -95 -4 3 -5 -1 -3 -8 3 -8 -3 -31 -14 -53 -10 -22 -17 -43 -14 -47 2
-5 -1 -8 -6 -8 -6 0 -10 -10 -10 -22 1 -17 2 -19 6 -5 2 9 8 17 12 17 11 0 59
108 67 149 4 17 10 31 15 31 5 0 6 7 3 15 -4 9 0 15 9 15 11 0 15 8 14 24 -1
14 3 26 8 27 25 5 49 65 76 191 7 32 20 66 31 77 10 11 18 27 18 35 0 9 11 18
25 22 23 6 25 10 20 43 l-6 36 14 -30 15 -30 -5 45 c-3 34 -2 41 6 30 6 -8 11
-10 12 -5 1 6 7 -8 14 -30 l13 -40 1 37 c1 20 5 39 10 42 4 3 7 18 5 33 -2 20
0 17 8 -10 14 -47 29 -49 18 -2 -5 20 -4 33 1 29 5 -3 9 -13 9 -22 1 -10 17
-25 37 -34 46 -22 57 -16 13 7 -18 9 -30 19 -27 22 3 2 15 -1 27 -7 18 -10 21
-10 14 2 -5 7 -9 21 -10 31 -1 9 -2 18 -4 20 -1 1 -3 16 -5 33 -5 46 -44 229
-70 324 -32 120 -70 214 -115 292 -22 36 -40 75 -40 85 0 10 14 70 30 133 16
63 37 166 46 229 l17 114 107 106 c200 197 315 416 410 777 23 87 51 184 61
214 11 30 29 100 39 155 11 55 25 120 32 144 11 42 12 43 21 20 10 -24 11 -24
14 -2 2 12 16 33 29 47 19 18 24 31 19 47 -5 15 -4 19 5 14 9 -6 10 -1 5 16
-5 13 -9 56 -10 94 -1 39 -7 83 -13 98 -15 35 -15 47 -1 27 8 -11 9 -8 4 15
-4 17 -8 44 -10 62 -1 17 -6 37 -10 44 -5 7 -1 17 9 25 14 10 15 17 7 33 -16
28 -14 74 2 65 9 -6 9 -4 -1 8 -7 9 -9 19 -4 22 16 9 21 60 9 75 -7 9 -7 12
-1 9 12 -8 38 78 28 94 -5 7 -2 8 6 3 10 -6 12 -4 6 11 -9 22 -9 23 -7 47 1
11 6 15 12 11 8 -5 10 3 7 25 -2 17 -1 31 3 31 5 0 4 11 -1 24 -8 21 -6 26 11
31 16 5 18 10 8 21 -6 8 -8 14 -4 14 5 0 1 8 -7 18 -22 24 -35 67 -17 56 21
-12 52 -13 39 0 -15 15 -12 29 5 22 13 -5 14 -2 4 16 -10 18 -9 20 5 15 12 -5
15 -3 10 5 -5 7 -7 25 -6 40 1 16 -4 41 -13 58 -15 29 -11 65 6 54 5 -3 9 -1
9 5 0 5 -6 12 -12 14 -10 4 -9 8 2 16 9 7 11 14 5 19 -20 15 -34 49 -23 60 6
6 2 17 -14 31 -17 16 -18 20 -5 15 15 -5 16 -3 9 17 -11 31 -4 59 14 59 19 0
18 26 -1 34 -8 3 -15 14 -15 24 0 10 -15 31 -34 46 -25 20 -33 32 -28 48 4 17
2 20 -13 15 -13 -5 -16 -3 -12 8 4 8 1 28 -6 45 -10 22 -16 27 -25 18 -8 -8
-15 -8 -27 2 -16 13 -21 35 -6 25 5 -3 12 -1 16 5 3 5 2 10 -3 10 -13 0 -26
48 -23 84 2 23 0 28 -14 22 -13 -4 -16 -2 -11 9 3 8 1 25 -4 37 -8 20 -9 21
-9 4 -1 -21 -11 -17 -15 6 -2 7 -8 26 -14 41 -7 16 -12 36 -12 45 0 13 -2 14
-9 4 -6 -10 -13 -1 -25 30 -10 24 -31 60 -47 80 -16 20 -29 42 -29 47 0 6 -6
11 -13 11 -8 0 -19 11 -25 25 -7 14 -25 34 -42 43 -16 9 -32 28 -35 41 -3 13
-8 21 -11 18 -6 -6 -29 18 -90 93 -20 25 -43 44 -51 42 -8 -2 -22 3 -30 10
-13 10 -17 10 -20 1 -7 -21 -23 -15 -23 8 0 12 -4 17 -11 13 -6 -3 -23 5 -37
20 -16 15 -43 27 -66 30 -34 4 -69 24 -88 51 -4 5 -10 6 -14 2 -11 -11 -44 23
-44 46 0 14 -4 17 -12 10 -18 -13 -28 -11 -72 16 -29 18 -40 21 -46 11 -6 -9
-9 -9 -15 0 -6 9 -9 9 -16 -1 -6 -11 -12 -10 -27 4 -25 22 -43 21 -70 -3 -12
-12 -22 -17 -22 -12 0 10 -29 22 -62 26 -10 2 -18 -1 -18 -6 0 -5 -5 -6 -11
-2 -6 3 -15 0 -20 -7 -7 -12 -14 -11 -39 3 -17 10 -36 15 -44 12 -7 -3 -16 1
-19 9 -3 9 -15 12 -36 9 -17 -2 -28 -8 -25 -13 9 -15 -13 -10 -26 6 -11 13
-15 13 -21 3 -6 -10 -15 -9 -39 5 -16 10 -35 15 -40 12 -6 -4 -17 -1 -25 5
-12 10 -15 9 -15 -9z m170 -91 c-19 -13 -30 -13 -30 0 0 6 10 10 23 10 18 0
19 -2 7 -10z m116 -31 c-15 -9 -16 -13 -5 -20 10 -6 8 -9 -8 -9 -13 0 -23 6
-23 13 0 19 10 27 34 27 20 -1 20 -1 2 -11z m-102 -14 c-4 -8 -10 -12 -15 -9
-11 6 -2 24 11 24 5 0 7 -7 4 -15z m-549 -65 c3 -5 -1 -10 -9 -10 -9 0 -16 5
-16 10 0 6 4 10 9 10 6 0 13 -4 16 -10z m495 -670 c-8 -5 -19 -10 -25 -10 -5
0 -3 5 5 10 8 5 20 10 25 10 6 0 3 -5 -5 -10z m-33 -41 c25 -9 26 -11 10 -21
-14 -7 -22 -6 -33 9 -13 16 -13 15 -3 -9 6 -15 17 -24 24 -22 7 3 16 1 20 -5
3 -6 14 -11 23 -11 15 0 15 2 2 10 -8 5 -10 10 -5 11 32 4 41 3 47 -5 4 -6 12
-6 20 1 9 7 21 5 38 -4 l25 -15 -30 7 -30 7 24 -21 24 -21 -22 0 c-13 0 -20
-4 -16 -11 4 -6 13 -8 21 -5 11 4 13 -1 9 -22 -3 -15 -2 -21 1 -14 3 6 10 9
15 6 6 -4 6 -10 0 -18 -6 -7 -6 -17 -1 -26 8 -13 10 -13 10 0 0 12 2 12 13 1
9 -10 9 -15 0 -18 -7 -2 -9 -11 -6 -19 3 -8 0 -14 -7 -14 -7 0 -10 -7 -6 -16
5 -12 0 -15 -27 -13 -35 3 -77 -18 -77 -38 0 -15 19 -17 53 -4 35 13 47 -17
18 -41 -21 -16 -30 -55 -11 -43 5 3 25 2 44 -3 23 -7 38 -6 45 1 17 17 5 -53
-13 -72 -16 -18 -12 -31 8 -31 6 0 4 5 -4 10 -17 11 -10 13 14 4 10 -4 16 -18
16 -35 0 -33 15 -39 23 -9 7 28 24 25 29 -5 3 -14 1 -23 -6 -22 -13 2 -15 -72
-2 -80 5 -4 6 0 1 7 -5 8 -4 11 3 6 12 -7 5 -36 -8 -36 -5 0 -12 9 -15 20 -7
23 -25 27 -25 5 0 -8 9 -19 20 -25 23 -13 26 -30 5 -30 -9 0 -12 -6 -9 -15 8
-19 -25 -9 -44 14 -11 14 -12 13 -3 -5 11 -23 4 -67 -10 -58 -5 3 -9 -4 -9
-15 0 -28 -20 -37 -21 -9 -1 16 -3 18 -6 6 -2 -9 -13 -20 -25 -24 -25 -8 -106
4 -113 17 -4 5 -11 7 -16 3 -5 -3 -6 -10 -3 -16 4 -7 -2 -8 -17 -3 -13 4 -44
7 -69 6 -25 -1 -55 -1 -67 -1 -16 0 -21 -5 -16 -16 5 -14 1 -15 -27 -9 -21 5
-30 4 -26 -3 3 -6 2 -13 -4 -17 -5 -3 -10 -1 -10 4 0 6 -4 11 -10 11 -5 0 -10
-9 -10 -21 0 -14 -5 -19 -14 -16 -7 3 -18 1 -23 -4 -6 -6 -25 -13 -44 -16 -33
-5 -103 -56 -92 -67 9 -9 -18 -36 -29 -30 -6 4 -5 10 3 15 11 7 10 9 -3 9 -26
0 -27 -22 0 -47 13 -12 21 -26 18 -32 -3 -5 0 -12 6 -14 9 -4 7 -6 -3 -6 -9
-1 -23 -9 -32 -18 -15 -18 -17 -22 -17 -43 0 -5 -7 -10 -15 -10 -20 0 -19 -24
2 -41 13 -11 17 -11 20 -1 3 6 9 12 14 12 6 0 8 -3 6 -7 -3 -5 5 -8 18 -8 13
0 22 2 20 4 -5 4 21 31 31 31 4 0 13 -8 20 -17 12 -16 12 -16 7 5 -3 13 -1 22
6 22 7 0 9 5 6 10 -8 14 18 13 32 -1 8 -8 17 -7 34 5 16 11 34 14 61 10 25 -4
38 -3 38 5 0 6 11 11 25 11 14 0 25 -4 25 -10 0 -5 -6 -10 -12 -10 -9 0 -8 -3
2 -9 8 -6 17 -8 21 -6 3 3 16 -6 29 -20 l22 -24 -38 -11 c-163 -46 -239 -53
-189 -16 11 8 23 12 27 10 5 -3 8 0 8 6 0 6 4 9 9 5 5 -3 12 -1 16 4 6 10 -1
9 -70 -9 -65 -18 -69 -18 -85 -7 -12 9 -13 9 -3 -3 10 -11 10 -17 -3 -29 -32
-34 -74 -109 -68 -124 7 -20 47 -29 77 -18 14 6 28 7 31 4 3 -4 6 -1 6 5 0 8
12 7 43 -2 23 -7 55 -12 70 -12 16 1 27 -4 27 -11 0 -7 4 -13 9 -13 5 0 11 -6
14 -14 4 -9 -2 -12 -21 -10 -43 5 -71 -6 -69 -26 1 -10 4 -17 8 -14 4 2 9 -5
11 -17 2 -12 11 -26 21 -30 9 -5 25 -14 35 -19 9 -6 28 -15 41 -20 18 -8 22
-16 19 -35 -5 -23 5 -31 34 -26 5 0 7 -5 5 -11 -1 -8 7 -12 24 -10 14 2 31 -3
37 -11 9 -11 6 -18 -12 -34 -13 -12 -32 -23 -43 -25 -13 -3 -17 -12 -16 -32 2
-21 -1 -26 -8 -19 -7 7 -22 8 -40 3 -17 -5 -31 -5 -34 1 -7 11 -25 12 -25 1 0
-4 17 -15 38 -24 34 -15 39 -15 64 0 21 12 25 19 16 29 -16 20 -5 24 25 10 31
-14 33 -22 12 -44 -8 -8 -13 -19 -10 -24 4 -5 0 -9 -9 -9 -8 0 -13 -8 -12 -17
2 -10 -2 -21 -8 -25 -7 -5 -4 -8 7 -8 15 0 15 -2 -3 -20 -11 -11 -20 -26 -20
-33 0 -7 -9 -18 -19 -24 -20 -13 -24 -1 -8 25 9 14 -2 16 -21 3 -7 -4 -14 -19
-14 -32 -1 -13 -8 -32 -16 -41 -16 -19 -52 -25 -52 -9 0 5 -8 8 -17 6 -10 -2
-18 -4 -18 -5 0 -1 -10 -3 -22 -4 -12 -1 -20 1 -17 6 3 4 -2 8 -10 8 -9 0 -16
6 -16 13 0 8 -3 7 -10 -3 -5 -9 -5 -19 2 -27 8 -9 3 -15 -17 -23 -25 -10 -30
-38 -6 -32 7 1 10 -2 6 -8 -3 -5 -12 -10 -20 -10 -7 0 -16 -7 -19 -16 -4 -10
-16 -14 -35 -12 -33 3 -65 -19 -53 -36 13 -17 8 -69 -7 -74 -10 -3 -12 1 -8
12 4 9 5 16 3 16 -3 0 -11 3 -20 6 -9 3 -16 1 -16 -6 0 -6 5 -8 10 -5 16 10
12 -1 -6 -15 -8 -8 -14 -9 -13 -4 4 25 -3 44 -16 44 -8 0 -15 7 -15 16 0 9 -9
18 -20 21 -21 6 -24 12 -14 37 5 13 9 14 21 5 11 -10 13 -10 11 1 -2 7 6 18
18 24 l21 11 -23 18 c-13 10 -24 13 -24 7 0 -23 -21 -8 -26 20 -6 25 -8 27
-21 15 -8 -8 -18 -15 -23 -15 -5 0 -7 -12 -4 -27 3 -19 2 -24 -5 -14 -5 7 -7
27 -4 43 2 15 0 27 -5 26 -13 -4 -72 59 -64 67 4 4 0 5 -8 3 -9 -2 -16 6 -18
21 -3 17 0 21 10 16 7 -3 4 1 -6 9 -16 13 -22 13 -28 3 -5 -8 -8 -7 -8 6 0 9
5 17 11 17 7 0 6 8 -3 23 -14 21 -28 62 -27 81 1 5 -5 12 -11 16 -18 11 -23
300 -6 300 9 0 12 9 8 25 -2 15 0 25 7 25 7 0 9 5 6 10 -3 6 -2 10 3 10 12 0
25 38 22 68 -2 24 24 31 34 10 3 -7 3 4 0 25 -5 31 -3 37 12 37 14 0 15 3 6
12 -7 7 -12 21 -12 33 1 20 1 20 15 1 13 -17 15 -18 15 -3 0 9 -1 18 -2 20 -2
1 7 16 20 34 12 17 22 36 22 42 0 6 8 7 18 4 15 -6 15 -5 3 11 -19 22 -1 36
40 31 33 -5 48 10 19 18 -14 4 -20 14 -20 35 0 17 5 34 12 38 7 5 8 3 3 -6 -5
-9 -4 -11 4 -6 6 4 11 13 10 19 -3 19 12 66 47 149 26 62 31 80 21 90 -7 7
-14 27 -15 45 -1 18 -6 43 -10 55 -5 13 -8 35 -7 50 0 15 -5 30 -12 32 -9 4
-12 23 -10 60 1 30 5 52 9 50 11 -7 18 28 12 60 -5 29 11 60 27 50 5 -3 9 0 9
6 0 7 7 10 15 6 10 -3 15 1 15 12 0 11 3 13 8 5 5 -8 17 -8 46 2 22 8 44 11
50 8 6 -3 8 -3 4 2 -10 11 11 47 23 40 5 -4 9 -1 9 5 0 7 7 10 15 6 8 -3 14 0
12 7 -1 7 4 11 11 9 7 -1 15 5 18 13 3 8 10 12 16 9 5 -3 5 -11 1 -18 -4 -7
-1 -4 9 6 9 10 21 18 27 18 6 0 11 5 11 10 0 6 8 10 18 10 10 0 23 5 30 12 9
9 12 9 12 0 0 -18 54 12 74 39 15 22 52 46 73 48 6 1 24 -4 40 -10z m143 2 c0
-5 -11 -16 -24 -24 -22 -15 -25 -15 -31 1 -3 9 -3 13 1 10 3 -4 13 -1 21 7 16
17 33 20 33 6z m73 -251 c3 -13 10 -18 21 -14 9 3 16 1 16 -6 0 -6 -5 -8 -10
-5 -6 3 -13 -1 -16 -9 -3 -9 -12 -16 -20 -16 -17 0 -18 12 -2 28 9 9 9 12 0
12 -7 0 -12 7 -12 15 0 22 17 18 23 -5z m-17 -67 c-7 -7 -26 7 -26 19 0 6 6 6
15 -2 9 -7 13 -15 11 -17z m133 -253 c0 -10 -3 -8 -9 5 -12 27 -12 43 0 25 5
-8 9 -22 9 -30z m-19 -20 c0 -5 -2 -10 -4 -10 -3 0 -8 5 -11 10 -3 6 -1 10 4
10 6 0 11 -4 11 -10z m10 -53 c0 -18 -2 -19 -10 -7 -13 20 -13 43 0 35 6 -3
10 -16 10 -28z m298 10 c8 -10 5 -20 -13 -40 -29 -31 -30 -36 -8 -52 11 -8 13
-14 5 -19 -7 -4 -12 -2 -12 5 0 7 -7 4 -15 -7 -13 -17 -14 -17 -15 -1 0 9 -4
17 -10 17 -5 0 -10 5 -10 10 0 6 7 10 16 10 8 0 12 5 9 10 -3 6 -1 10 5 10 6
0 8 5 4 11 -7 11 14 59 26 59 4 0 12 -6 18 -13z m-123 -116 c3 -5 1 -12 -5
-16 -5 -3 -10 1 -10 9 0 18 6 21 15 7z m-150 -11 c3 -5 1 -10 -4 -10 -6 0 -11
5 -11 10 0 6 2 10 4 10 3 0 8 -4 11 -10z m-740 -220 c-3 -5 -11 -10 -16 -10
-6 0 -7 5 -4 10 3 6 11 10 16 10 6 0 7 -4 4 -10z m-38 -92 c-3 -8 -6 -5 -6 6
-1 11 2 17 5 13 3 -3 4 -12 1 -19z m865 -197 c11 -1 68 -91 68 -106 0 -8 5
-17 10 -20 6 -4 8 -10 5 -15 -3 -5 9 -53 28 -107 23 -67 34 -119 36 -166 2
-66 -11 -113 -29 -102 -11 7 -24 -31 -15 -45 3 -5 -6 -12 -20 -16 -14 -3 -25
-10 -25 -15 0 -5 -9 -9 -19 -9 -11 0 -23 -5 -26 -11 -4 -6 -24 -9 -46 -6 -22
2 -42 1 -44 -4 -3 -4 -29 -15 -58 -25 -28 -9 -59 -22 -67 -28 -27 -22 -54 -13
-72 24 -17 34 -15 69 4 81 6 4 6 15 -2 29 -7 12 -8 25 -4 29 13 9 15 63 3 77
-6 7 -16 11 -23 8 -14 -5 -9 73 5 82 5 3 9 13 9 23 0 10 9 26 19 35 13 12 18
29 17 57 -1 24 2 39 9 39 7 0 20 18 30 40 13 30 21 37 30 30 19 -16 38 -8 58
23 11 15 23 27 29 27 5 0 6 5 3 10 -3 6 1 13 10 16 9 4 14 13 11 21 -9 23 3
34 32 29 15 -2 30 -5 34 -5z m-1758 -302 c-9 -10 -21 -19 -27 -19 -12 0 0 64
13 68 6 2 10 11 11 20 0 10 5 2 10 -17 8 -27 7 -37 -7 -52z m1496 52 c0 -6 -4
-13 -10 -16 -5 -3 -10 1 -10 9 0 9 5 16 10 16 6 0 10 -4 10 -9z m-230 -301 c0
-5 -5 -10 -11 -10 -5 0 -7 5 -4 10 3 6 8 10 11 10 2 0 4 -4 4 -10z m-710 -105
c0 -8 -4 -15 -10 -15 -5 0 -10 7 -10 15 0 8 5 15 10 15 6 0 10 -7 10 -15z
m886 -76 c-11 17 12 13 32 -6 35 -35 97 -83 106 -82 5 0 13 -5 17 -13 7 -11 9
-11 9 1 0 10 3 11 14 2 10 -9 16 -9 21 -1 5 8 11 8 21 -1 17 -14 18 -49 2 -49
-8 -1 -5 -7 6 -15 10 -8 23 -12 27 -9 5 3 9 -1 10 -8 4 -68 27 -102 69 -104
16 -1 27 2 24 7 -3 5 1 6 9 3 10 -3 17 4 21 20 9 36 38 35 34 -1 -6 -54 -100
-89 -143 -53 -8 7 -50 7 -50 0 0 -2 -14 -5 -54 -14 -12 -3 -28 -9 -35 -14 -6
-5 -24 -12 -41 -15 -16 -3 -42 -9 -57 -12 -22 -6 -26 -4 -23 11 2 11 4 21 6
24 3 7 7 23 8 38 0 6 10 12 21 12 11 0 20 4 20 9 0 13 -34 8 -43 -6 -11 -17
-32 -16 -47 2 -9 11 -9 15 -1 15 7 0 9 5 5 11 -4 8 -9 7 -14 -2 -7 -10 -14
-10 -38 0 -17 7 -36 10 -41 6 -6 -3 -21 -8 -33 -10 -25 -5 -40 -24 -33 -43 3
-7 0 -10 -5 -7 -6 3 -11 1 -11 -4 -1 -6 -2 -16 -3 -23 -1 -13 -34 -20 -41 -8
-3 5 2 13 11 18 10 6 15 16 11 26 -4 9 -2 15 5 13 7 -1 14 6 16 16 3 16 1 17
-17 5 -14 -9 -24 -9 -31 -2 -15 15 -2 42 22 50 12 4 17 11 14 21 -4 11 -2 13
9 10 8 -4 17 -2 19 2 3 5 19 11 34 14 27 5 29 9 25 42 -3 27 3 46 27 79 34 50
47 58 74 44 13 -7 16 -7 12 1z m-456 -9 c0 -5 -2 -10 -4 -10 -3 0 -8 5 -11 10
-3 6 -1 10 4 10 6 0 11 -4 11 -10z m-310 -51 c0 -10 -24 -39 -33 -39 -2 0 -4
7 -4 14 0 8 5 14 11 13 6 -1 10 4 9 11 -2 6 2 12 7 12 6 0 10 -5 10 -11z
m-103 -39 c3 -16 10 -30 16 -30 7 0 7 -4 -1 -12 -13 -13 -42 6 -42 28 0 8 -5
14 -11 14 -8 0 -8 5 1 15 19 23 30 18 37 -15z m103 -20 c0 -5 -2 -10 -4 -10
-3 0 -8 5 -11 10 -3 6 -1 10 4 10 6 0 11 -4 11 -10z m630 2 c0 -13 -12 -22
-22 -16 -10 6 -1 24 13 24 5 0 9 -4 9 -8z m-674 -21 c-3 -5 1 -11 9 -15 8 -3
14 -13 14 -23 -1 -17 -2 -17 -6 0 -5 20 -14 22 -31 5 -9 -9 -12 -9 -12 0 0 7
5 12 10 12 6 0 9 3 9 8 -2 12 1 22 7 22 3 0 3 -4 0 -9z m77 -31 c4 -15 0 -20
-13 -20 -25 0 -35 17 -20 35 15 18 26 12 33 -15z m-33 -50 c0 -5 -5 -10 -11
-10 -5 0 -7 5 -4 10 3 6 8 10 11 10 2 0 4 -4 4 -10z m35 -40 c3 -6 -1 -7 -9
-4 -18 7 -21 14 -7 14 6 0 13 -4 16 -10z m925 -235 c34 -7 60 -18 60 -24 0 -4
-9 -14 -20 -24 -23 -19 -51 -17 -104 8 -46 22 -86 26 -86 9 0 -18 -4 -18 -43
3 l-32 17 48 7 c27 4 52 11 55 14 6 6 75 0 122 -10z m90 -30 c0 -8 5 -15 11
-15 20 0 -1 -18 -26 -22 -17 -4 -24 -2 -20 6 3 6 8 19 11 29 8 21 24 23 24 2z
m53 -15 c-3 -11 -8 -20 -12 -20 -3 0 -12 9 -19 20 -11 18 -10 20 12 20 19 0
23 -4 19 -20z m40 -2 c8 -28 -4 -47 -14 -22 -11 27 -11 44 0 44 5 0 11 -10 14
-22z m-1018 -858 c3 -6 -1 -7 -9 -4 -18 7 -21 14 -7 14 6 0 13 -4 16 -10z
m-55 -500 c0 -5 -2 -10 -4 -10 -3 0 -8 5 -11 10 -3 6 -1 10 4 10 6 0 11 -4 11
-10z m1323 -690 c3 -11 1 -20 -4 -20 -5 0 -9 9 -9 20 0 11 2 20 4 20 2 0 6 -9
9 -20z m-26 -32 c-3 -8 -6 -5 -6 6 -1 11 2 17 5 13 3 -3 4 -12 1 -19z"/>
<path d="M3666 5005 c-11 -28 -7 -45 9 -39 8 3 13 14 12 25 -4 26 -13 33 -21
14z"/>
<path d="M3731 4966 c-7 -8 -10 -20 -6 -26 11 -18 25 -11 26 13 l0 22 9 -22
c5 -13 14 -23 20 -23 6 0 10 10 8 23 -4 27 -39 35 -57 13z"/>
<path d="M3719 4889 c0 -8 -2 -21 -4 -30 -1 -9 4 -16 11 -16 8 0 12 3 9 5 -3
3 0 11 5 17 7 9 6 16 -5 25 -12 10 -15 10 -16 -1z"/>
<path d="M3770 4866 c0 -2 7 -9 15 -16 9 -7 15 -8 15 -2 0 5 -7 12 -15 16 -8
3 -15 4 -15 2z"/>
<path d="M3760 4831 c0 -5 7 -12 16 -15 14 -5 15 -4 4 9 -14 17 -20 19 -20 6z"/>
<path d="M3717 4810 c-3 -11 -1 -23 4 -26 5 -3 9 0 9 5 0 6 5 11 11 11 6 0 9
-9 6 -20 -3 -11 -1 -23 4 -26 17 -10 9 43 -10 60 -17 16 -19 16 -24 -4z"/>
<path d="M3770 4761 c0 -6 5 -13 10 -16 6 -3 10 1 10 9 0 9 -4 16 -10 16 -5 0
-10 -4 -10 -9z"/>
<path d="M3020 4454 c0 -8 5 -12 10 -9 6 4 8 11 5 16 -9 14 -15 11 -15 -7z"/>
<path d="M2897 4333 c-10 -9 -9 -23 1 -23 5 0 9 7 9 15 0 17 -1 18 -10 8z"/>
<path d="M2885 4279 c-4 -6 -5 -12 -2 -15 2 -3 7 2 10 11 7 17 1 20 -8 4z"/>
<path d="M3425 3720 c-3 -5 -15 -10 -26 -10 -12 0 -19 -7 -19 -20 0 -11 5 -20
10 -20 6 0 10 7 10 16 0 12 6 15 21 11 12 -3 18 -3 15 0 -3 4 -1 12 5 20 8 9
8 13 1 13 -6 0 -14 -4 -17 -10z"/>
<path d="M3215 3610 c-4 -6 -3 -16 3 -22 13 -13 23 4 13 21 -7 10 -10 10 -16
1z"/>
<path d="M3320 3600 c0 -5 7 -7 15 -4 8 4 15 8 15 10 0 2 -7 4 -15 4 -8 0 -15
-4 -15 -10z"/>
<path d="M3165 3570 c-3 -5 -3 -15 1 -21 6 -11 23 6 24 24 0 10 -18 9 -25 -3z"/>
<path d="M3295 3561 c-9 -16 9 -20 23 -5 10 12 10 14 -2 14 -8 0 -17 -4 -21
-9z"/>
<path d="M3360 3550 c0 -5 5 -10 11 -10 5 0 7 5 4 10 -3 6 -8 10 -11 10 -2 0
-4 -4 -4 -10z"/>
<path d="M3331 3531 c-8 -6 -9 -11 -3 -15 6 -3 14 -1 17 5 9 14 2 20 -14 10z"/>
<path d="M3270 3510 c0 -5 5 -10 10 -10 6 0 10 5 10 10 0 6 -4 10 -10 10 -5 0
-10 -4 -10 -10z"/>
<path d="M3345 3440 c3 -5 10 -10 16 -10 5 0 9 5 9 10 0 6 -7 10 -16 10 -8 0
-12 -4 -9 -10z"/>
<path d="M2992 3288 c2 -6 12 -12 22 -14 14 -2 15 0 5 12 -14 17 -32 19 -27 2z"/>
<path d="M3282 6229 c2 -7 10 -15 17 -17 8 -3 12 1 9 9 -2 7 -10 15 -17 17 -8
3 -12 -1 -9 -9z"/>
<path d="M2590 5810 c0 -5 7 -10 15 -10 8 0 15 5 15 10 0 6 -7 10 -15 10 -8 0
-15 -4 -15 -10z"/>
<path d="M402 5404 c-17 -8 -65 -17 -105 -20 -39 -3 -83 -7 -97 -9 -14 -2 -37
-4 -51 -4 -27 -1 -47 -27 -31 -43 4 -4 71 -16 147 -27 77 -10 147 -21 155 -25
40 -16 68 60 42 113 -16 35 -15 35 -60 15z"/>
<path d="M420 5212 c0 -5 -6 -9 -12 -9 -7 -1 -40 -9 -73 -18 -36 -11 -93 -18
-142 -18 l-83 0 0 -38 c0 -21 5 -41 11 -45 7 -4 54 -7 105 -7 98 0 118 -8 126
-52 2 -16 -5 -20 -41 -27 -50 -9 -48 -7 -53 -32 -2 -15 3 -20 23 -21 14 -1 33
-4 42 -8 9 -3 17 -1 19 4 6 18 68 -11 68 -32 0 -10 -3 -18 -7 -17 -5 1 -21 -4
-37 -11 -19 -8 -39 -8 -63 -2 -19 6 -44 6 -56 2 -12 -5 -25 -8 -29 -7 -3 0
-10 -2 -14 -6 -4 -5 1 -8 12 -9 10 0 29 -2 41 -3 14 -2 20 2 16 8 -5 8 -3 8 8
0 8 -6 39 -10 69 -9 69 2 82 -2 75 -26 -5 -14 -2 -17 10 -13 9 4 13 9 10 12
-3 3 1 12 9 21 12 13 13 29 5 81 -11 80 -11 79 -5 110 17 83 18 118 2 148 -15
30 -36 43 -36 24z"/>
<path d="M215 4960 c-3 -6 1 -7 9 -4 18 7 21 14 7 14 -6 0 -13 -4 -16 -10z"/>
<path d="M210 4740 l-105 -5 -15 -40 c-11 -32 -14 -98 -14 -320 0 -154 3 -293
7 -308 4 -15 3 -45 -3 -66 -15 -56 -16 -637 -1 -655 13 -15 123 -27 278 -30
81 -1 106 2 118 15 14 14 16 55 15 322 0 237 -3 313 -14 339 -12 28 -12 39 0
73 21 63 22 555 1 613 -9 23 -13 42 -9 42 4 0 -2 6 -13 12 -22 14 -87 16 -245
8z"/>
<path d="M2510 3462 c0 -13 23 -37 56 -60 23 -16 31 -17 31 -7 0 8 -3 13 -7
12 -4 -1 -19 13 -34 31 -27 31 -46 41 -46 24z"/>
<path d="M2236 3414 c-6 -15 22 -69 32 -60 7 8 -8 76 -17 76 -5 0 -12 -7 -15
-16z"/>
<path d="M2529 3360 c13 -11 31 -20 40 -20 9 0 3 8 -17 20 -41 25 -54 25 -23
0z"/>
<path d="M79 3203 c-19 -23 -33 -569 -18 -703 14 -128 17 -137 33 -143 8 -3
90 -7 182 -8 162 -2 167 -1 184 21 12 16 15 35 12 66 -2 23 1 59 8 79 8 24 12
136 11 352 0 314 0 318 -21 335 -19 16 -45 18 -200 18 -153 0 -179 -2 -191
-17z"/>
<path d="M2629 2238 c-5 -18 -6 -38 -1 -34 7 8 12 36 6 36 -2 0 -4 -1 -5 -2z"/>
<path d="M2576 2092 c-2 -4 -1 -14 5 -22 7 -12 9 -10 9 8 0 23 -5 28 -14 14z"/>
<path d="M2303 1921 c-17 -10 -71 -58 -120 -108 -51 -52 -125 -114 -176 -147
-48 -32 -100 -73 -115 -92 -15 -19 -30 -34 -35 -34 -12 0 -186 -98 -247 -140
-52 -35 -94 -58 -290 -163 -47 -24 -148 -78 -225 -119 -369 -197 -596 -303
-607 -286 -3 7 -5 15 -2 20 3 4 -2 29 -11 55 -14 42 -14 54 -2 88 15 44 13
373 -2 430 -4 17 -4 39 0 50 9 24 11 111 3 142 -9 34 -47 40 -229 37 -190 -4
-195 -6 -195 -76 0 -27 5 -40 19 -48 11 -5 81 -10 156 -10 102 0 143 -4 165
-15 17 -9 30 -12 30 -8 0 5 5 0 11 -10 6 -9 14 -15 19 -12 5 3 8 -3 7 -14 -1
-14 -17 -26 -55 -40 -45 -18 -77 -21 -192 -21 -112 0 -140 -3 -150 -16 -18
-21 -25 -337 -8 -367 20 -36 19 -60 -2 -127 -16 -50 -20 -91 -20 -199 -1 -104
-4 -141 -15 -155 -12 -16 -15 -67 -15 -278 l0 -259 1760 1 c968 1 1762 5 1765
10 3 4 -9 18 -25 31 -33 27 -39 41 -12 33 9 -4 2 3 -15 15 -33 21 -46 48 -18
37 22 -8 18 3 -7 24 l-23 18 29 -5 c24 -5 28 -3 23 10 -5 14 -3 14 27 -1 19
-9 32 -20 30 -24 -2 -3 5 -4 16 -1 11 3 20 10 20 15 0 6 -7 8 -15 5 -15 -6
-56 37 -54 57 0 7 3 6 6 -1 7 -20 23 -15 16 5 -5 13 -3 15 7 5 10 -9 20 -3 46
29 38 45 46 70 12 38 -16 -15 -30 -19 -48 -15 -33 9 -37 14 -20 25 11 7 11 11
1 24 -14 17 -8 46 9 46 5 0 10 -7 10 -15 0 -8 5 -15 11 -15 8 0 9 11 5 31 -5
27 -4 30 9 19 8 -7 15 -19 15 -26 0 -8 6 -11 15 -8 10 4 15 0 15 -14 0 -14 6
-20 20 -19 15 1 18 6 13 27 -3 14 -10 27 -15 28 -4 2 -8 10 -8 17 0 7 -6 15
-12 18 -10 3 -10 9 0 26 10 18 10 22 -2 27 -8 3 -16 14 -19 25 -4 15 -14 19
-54 19 -26 0 -68 -6 -93 -14 -43 -13 -200 -85 -210 -96 -3 -3 -43 -28 -90 -55
-47 -27 -91 -55 -98 -62 -7 -7 -20 -13 -28 -13 -8 0 -14 -4 -14 -9 0 -5 -13
-14 -29 -19 -35 -12 -45 -4 -56 48 -3 19 -15 64 -25 100 -11 36 -40 137 -66
225 -60 207 -92 298 -171 475 -36 80 -83 190 -105 245 -61 155 -117 281 -169
385 l-47 95 29 51 c16 28 29 54 29 58 0 12 -56 4 -87 -13z m1207 -1481 c0 -5
-9 -14 -21 -20 -11 -7 -26 -25 -33 -42 -9 -20 -16 -26 -21 -19 -11 18 15 72
39 81 28 12 36 12 36 0z m80 -31 c0 -6 -4 -7 -10 -4 -5 3 -10 11 -10 16 0 6 5
7 10 4 6 -3 10 -11 10 -16z"/>
<path d="M77 1819 c-22 -13 -22 -46 1 -58 20 -10 142 -21 257 -23 62 -1 87 3
108 17 33 21 34 40 5 56 -29 15 -346 22 -371 8z"/>
<path d="M3015 1649 c-3 -4 1 -9 9 -12 8 -3 17 0 19 7 5 13 -21 18 -28 5z"/>
<path d="M4500 1046 c0 -12 189 -770 205 -821 3 -11 -5 3 -19 30 -13 28 -25
46 -25 42 -1 -4 -7 -2 -15 5 -8 7 -11 18 -8 23 3 6 2 7 -3 3 -4 -4 -15 -2 -22
4 -24 19 -105 44 -155 47 -44 2 -46 1 -53 -29 -10 -48 -62 -141 -98 -178 -18
-18 -40 -41 -50 -51 -9 -10 -30 -24 -45 -32 -15 -8 -29 -17 -32 -20 -12 -15
-83 -47 -94 -43 -7 3 -19 -2 -26 -11 -11 -13 81 -15 929 -15 911 0 941 1 932
18 -22 42 -145 143 -240 198 -303 176 -789 499 -871 578 -133 128 -310 272
-310 252z"/>
<path d="M4470 830 c0 -6 7 -10 15 -10 8 0 15 2 15 4 0 2 -7 6 -15 10 -8 3
-15 1 -15 -4z"/>
<path d="M3625 440 c-3 -5 -2 -10 4 -10 5 0 18 -3 28 -7 16 -6 16 -5 4 10 -15
19 -27 22 -36 7z"/>
<path d="M3480 152 c0 -4 9 -13 20 -20 19 -12 20 -11 8 8 -13 20 -28 27 -28
12z"/>
<path d="M4010 145 c0 -5 5 -17 10 -25 5 -8 10 -10 10 -5 0 6 -5 17 -10 25 -5
8 -10 11 -10 5z"/>
</g>
</svg>
